<svg xmlns="http://www.w3.org/2000/svg" viewBox="0 0 900 540" role="img" aria-label="Mock satellite tile showing recovering vegetation in 2022">
  <rect width="900" height="540" fill="#8b7d55"/>
  <path d="M0 88c130 45 210 18 328 58 134 45 234 112 572 70v324H0z" fill="#6d7044"/>
  <path d="M0 306c110-52 230-32 350-12 174 28 340-22 550 22v224H0z" fill="#577041"/>
  <g fill="#2e6a3e" opacity=".78">
    <circle cx="90" cy="120" r="26"/><circle cx="150" cy="165" r="22"/><circle cx="230" cy="210" r="28"/>
    <circle cx="330" cy="155" r="24"/><circle cx="420" cy="248" r="34"/><circle cx="518" cy="195" r="27"/>
    <circle cx="640" cy="250" r="31"/><circle cx="715" cy="180" r="26"/><circle cx="805" cy="305" r="30"/>
    <circle cx="260" cy="382" r="34"/><circle cx="390" cy="420" r="25"/><circle cx="560" cy="390" r="30"/>
    <circle cx="708" cy="430" r="26"/><circle cx="825" cy="455" r="24"/>
  </g>
  <g fill="none" stroke="#c4b37e" stroke-width="5" opacity=".55">
    <path d="M-20 420c150-42 260-62 420-36 180 29 300 0 520-30"/>
    <path d="M42 22c92 83 171 140 250 186 108 64 215 124 356 272"/>
  </g>
</svg>
